<svg width="412" height="127" viewBox="0 0 412 127" fill="none" xmlns="http://www.w3.org/2000/svg">
<path d="M378.702 21.7567C372.13 17.1767 364.951 15.1931 357.764 11.9118C356.957 11.5426 356.303 10.9906 356.048 10.1076C357.153 5.13658 381.689 10.0288 386.069 10.1681C394.297 10.4296 404.113 -5.29253 411.803 1.87307V2.13846C410.738 3.65186 409.916 5.6391 408.626 7.23939C406.027 10.4628 400.185 15.9446 398.615 19.4443C396.452 24.2645 404.03 42.3236 401.628 46.2098C399.881 47.5192 398.418 46.3874 397.168 45.0555C393.552 41.2073 390.795 31.6527 386.601 28.8695C384.152 29.9107 377.16 34.7474 375.956 37.2998C375.076 39.1711 376.865 46.5612 375.281 48.0655C374.816 48.0095 374.427 47.9163 374.122 47.4944C371.689 44.106 371.736 42.4759 368.583 39.3863C365.174 36.0464 358.097 35.4859 355.985 33.1069C355.364 30.0376 368.518 30.8446 370.484 30.3121C373.288 29.553 377.241 23.9778 378.702 21.7567Z" fill="black"/>
<path d="M236.2 0.580078C237.519 0.69226 240.794 0.592258 242.281 0.590756L255.422 0.594938C262.627 0.619766 266.802 0.318949 273.669 2.52913C289.881 7.74655 293.989 31.1637 279.681 40.7962C277.282 42.4109 275.115 43.2767 272.541 44.4938C278.275 49.8525 283.339 56.5776 288.88 62.2074C290.92 64.2793 292.358 66.5903 294.69 68.4618C296.733 64.0905 298.94 57.2926 300.86 52.5345L321.138 0.792972C322.79 0.630424 323.749 0.635479 325.397 0.673847C327.347 4.49311 329.041 8.55163 330.81 12.4667L339.251 30.8748L345.062 43.5388C346.744 47.1282 348.859 51.2764 350.005 55.0656C348.601 55.1624 347.195 55.2359 345.789 55.2862C344.393 52.6642 343.332 49.9528 342.063 47.2721L332.318 26.4801C330.612 22.8312 329.333 19.7185 327.454 16.0883C321.377 28.8679 317.366 43.5715 311.768 56.6389C310.238 60.2082 309.207 65.1954 307.272 68.4501C306.811 68.8557 306.099 68.7889 305.462 68.8114L302.394 68.6435C302.826 67.1953 303.83 64.8852 304.396 63.3858L309.057 51.2009L323.504 13.6236C324.068 12.1942 325.677 8.80054 323.477 8.11852C322.159 9.17347 319.15 18.536 318.397 20.4621L308.213 46.603C306.762 50.3554 305.269 54.1863 303.812 57.9296C302.225 62.0094 300.982 64.3635 299.878 68.7728C296.11 68.6868 292.322 68.8479 288.653 68.7444C285.062 65.3347 281.787 60.913 278.38 57.3098C273.687 52.3455 269.331 47.0831 264.692 42.0891C269.564 41.3833 275.085 39.4391 278.611 35.8653C281.84 32.6038 283.631 28.1851 283.583 23.5945C283.546 18.5721 281.669 13.812 278.037 10.3207C271.512 4.04554 261.862 4.37165 253.498 4.3708L240.808 4.41217C240.38 20.9094 241.05 37.6532 240.764 54.1784C240.683 58.872 240.626 64.1428 240.987 68.7937C239.339 68.8183 237.722 68.7641 236.077 68.717L236.127 18.9359L236.054 7.14772C236.044 5.64522 235.955 1.86881 236.2 0.580078Z" fill="black"/>
<path d="M26.8903 0.648853C27.9417 0.568969 29.1246 0.650457 30.1887 0.697392C31.1701 2.62753 32.1706 5.37471 33.093 7.43176L41.573 26.4777L61.0931 68.7546L56.1214 68.6998C55.4386 66.5347 53.5756 63.0063 52.5564 60.8416L46.5263 47.787L37.9232 29.0465C35.7446 24.2751 34.6562 21.4679 32.0935 16.6006L18.894 51.365C16.85 56.8113 14.5327 63.406 12.303 68.7193C10.7195 68.742 9.01601 68.6892 7.42258 68.6667C7.72931 67.5997 8.25376 66.3459 8.66235 65.2935C9.50799 62.9646 10.5321 60.7567 11.4316 58.4512C16.3845 45.7555 21.0393 32.9569 26.0853 20.292C27.4282 16.9217 28.8213 13.3027 29.8943 9.85533L28.7773 7.72486C27.3036 9.82885 26.4009 12.8614 25.4503 15.3204L21.5582 25.4358C17.3808 36.57 13.0444 47.6437 8.55053 58.6536C7.2473 61.8818 6.26473 65.6855 4.84916 68.7075C3.14596 68.8048 1.70413 68.7656 0 68.7211C1.59168 63.6244 4.81322 55.9659 6.83197 50.9334L16.3881 26.6876L23.3701 8.77675C24.2052 6.68892 25.812 2.39041 26.8903 0.648853Z" fill="black"/>
<path d="M165.913 0.594727C167.305 0.667566 169.109 0.63541 170.534 0.650818L170.503 30.6234C170.499 32.9887 170.507 35.3734 170.488 37.7317C170.426 45.2812 169.992 53.4532 175.666 59.363C180.691 64.5967 187.59 66.6709 194.697 66.7175C202.362 66.7679 210.101 65.8836 215.713 60.1036C219.992 56.2474 221.502 51.4983 221.64 45.7757C222.001 30.7714 221.482 15.6299 221.816 0.612043L226.335 0.659263L226.213 4.48348L226.219 44.4673C226.179 52.0423 225.317 57.5152 219.513 63.0874C212.605 69.6447 205.247 70.7736 196.153 70.9253C183.254 71.1403 169.175 65.5927 166.467 51.5174C165.346 45.6941 165.868 37.7435 165.876 31.5676L165.913 0.594727Z" fill="black"/>
<path d="M215.115 0.517578C216.312 0.638733 218.268 0.657268 219.522 0.702863C219.662 7.91799 219.491 15.0589 219.323 22.2635C219.244 25.6169 219.648 29.4398 219.546 32.854C219.293 41.3399 221.044 51.794 214.232 58.2778C209.162 63.1023 203.267 64.1869 196.576 64.2458C189.782 64.5093 183.034 62.8203 177.996 58.0202C174.31 54.5078 173.25 50.1305 173.269 45.1743C173.284 41.5544 173.279 37.9005 173.28 34.2791L173.258 9.10147C173.227 6.27345 173.257 3.44507 173.348 0.618351L177.606 0.678807L177.583 1.12301C176.963 14.7891 178.049 30.1099 177.582 43.5218C176.798 66.04 212.597 64.3556 214.297 48.4902C215.876 33.7646 214.553 15.6206 215.115 0.517578Z" fill="black"/>
<path d="M180.174 0.533203C181.094 0.654013 183.501 0.633327 184.543 0.648126C184.457 10.4956 184.442 20.3434 184.498 30.1911C184.502 34.2523 184.497 38.3135 184.522 42.375C184.529 43.4845 184.609 44.4136 184.738 45.52C185.309 50.4489 189.797 53.2497 194.407 53.5628C198.082 53.8121 201.829 53.765 204.787 51.3392C207.697 48.9614 207.518 45.8162 207.516 42.3893C207.516 40.0591 207.508 37.7209 207.506 35.3906L207.492 13.5916C207.49 9.81258 207.341 4.41111 207.664 0.752411C209.302 0.619258 210.683 0.595283 212.323 0.579144L212.307 4.78854L212.323 42.5275C212.294 46.7521 212.24 50.5022 208.985 53.563C205.528 56.7971 200.798 57.9183 196.195 57.9128C189.771 57.9053 181.426 54.9057 180.512 47.6023C179.83 42.1558 180.104 36.1289 180.102 30.5537C180.065 20.5467 180.089 10.5398 180.174 0.533203Z" fill="black"/>
<path d="M243.535 7.21266C249.895 7.32281 256.294 7.07273 262.696 7.24299C273.042 7.55641 281.272 13.2121 280.821 24.4754C280.393 35.1262 270.075 40.0109 260.6 39.5014L259.75 35.4114C265.723 34.8223 273.301 33.8076 275.424 27.215C277.767 19.9404 273.711 14.4147 267.046 12.1972C261.892 11.2541 253.573 11.5152 248.066 11.5252L248.079 68.7168C246.575 68.7897 244.948 68.799 243.432 68.835L243.393 30.8695C243.396 23.6733 243.138 14.2753 243.535 7.21266Z" fill="black"/>
<path d="M137.768 96.5171C138.641 96.4853 139.46 96.5806 140.165 97.1558C140.601 97.5121 140.874 98.0308 140.92 98.5923C141.023 99.7364 140.845 100.65 140.092 101.526L139.769 101.523C139.089 100.68 139.209 99.031 138.491 98.1656C136.061 97.9711 132.944 105.508 133.507 107.769C133.986 109.69 135.275 109.994 136.889 109.613C139.841 108.917 142.15 105.408 143.457 102.912C144.375 101.198 144.572 98.198 146.654 97.858C148.916 98.9668 144.87 105.634 145.83 107.223C148.694 107.658 152.893 100.467 155.535 99.1539C157.063 98.3943 156.654 98.4844 158.589 98.064L162.66 99.2418C161.981 101.18 159.119 108.174 160.226 109.6C162.908 110.139 167.384 103.635 168.959 103.435L169.098 103.752C167.805 108 157.037 117.778 157.689 105.451C155.523 105.674 154.801 109.998 150.781 106.39C147.845 108.991 146.394 110.326 143.1 107.377C140.732 109.545 137.757 112.308 134.298 111.503C131.731 110.904 130.828 109.03 130.721 106.623C123.315 112.425 123.054 106.655 124.18 100.645C124.255 100.245 124.297 99.6338 124.344 99.2086C121.905 101.486 116.846 109.317 115.743 109.586L115.331 109.287C114.935 108.539 114.904 108.379 114.861 107.533L115.501 105.302C111.411 109.065 107.782 111.08 103.56 106.469C100.874 108.491 101.235 109.511 100.308 112.586C99.2005 116.262 97.5213 119.992 94.9477 122.877C92.5653 125.546 88.4057 126.593 89.1685 121.455C89.7151 117.753 91.9642 114.019 94.5503 111.362C97.8328 107.989 98.5056 107.014 98.5669 102.435C97.6687 103.406 90.7049 110.448 89.7612 106.318C88.9863 102.926 94.6786 96.4721 98.6313 97.5894C100.128 98.0129 100.441 98.1251 101.914 98.9976C102.141 101.41 101.995 103.842 101.479 106.21C104.036 103.987 105.214 101.285 107.624 98.7877C108.864 97.3068 112.477 96.3627 112.72 99.1568C113.01 102.49 106.872 104.802 106.695 106.786C108.407 109.533 114.753 103.888 115.858 102.176C116.672 100.916 117.835 97.3942 119.286 97.8726C120.211 98.9265 120.085 99.5623 120.08 100.944C121.31 99.3913 124.186 95.8359 126.252 97.9127C127.488 99.1546 126.189 105.592 126.087 107.492C132.643 104.936 131.558 98.242 137.768 96.5171ZM97.3833 111.493C94.5521 113.464 90.3886 118.986 90.8765 122.663L91.106 122.929C93.9744 120.665 97.1334 115.121 97.6001 111.704L97.3833 111.493ZM158.755 99.5171C156.474 100.739 155.193 102.65 153.718 104.73L153.672 105.179C155.447 104.452 159.065 101.603 158.755 99.5171ZM97.9663 98.942C96.6763 99.6612 92.4272 103.384 92.3511 104.84L92.5601 104.901C94.1552 103.904 97.8538 101.012 98.2026 99.1988L97.9663 98.942ZM110.17 99.2798C109.05 100.324 108.203 101.537 107.549 102.92L107.717 103.227C108.876 102.113 109.744 101.26 110.379 99.7711C110.308 99.4686 110.357 99.456 110.17 99.2798Z" fill="black"/>
<path d="M70.9166 0.52832C72.3347 0.612832 73.9461 0.626028 75.3809 0.66939L75.3969 65.4221C83.9779 65.5941 92.6739 65.3939 101.264 65.4684C105.454 65.5048 109.735 65.3748 113.911 65.6046C113.943 66.544 114.021 67.6398 113.865 68.5523L113.554 68.7289C111.194 68.8191 108.77 68.8649 106.409 68.8292C94.635 68.6502 82.6606 69.1272 70.9081 68.7362C70.6216 64.0054 70.7847 58.6143 70.8273 53.8517L70.86 36.816C70.9024 24.5758 70.5008 12.8554 70.9166 0.52832Z" fill="black"/>
<path d="M277.881 96.7596C278.881 96.6439 280.667 96.2504 281.016 97.5692C280.007 99.0242 272.486 100.003 279.31 105.046C281.716 104.451 284.283 102.348 286.754 101.293C285.222 103.862 283.447 104.403 281.539 106.543C280.716 107.47 280.379 109.452 279.498 110.504C278.047 112.238 275.28 113.395 273.295 111.805C272.859 111.438 272.786 111.239 272.743 110.712C273.786 108.493 278.993 108.373 274.466 103.891C272.563 105.681 269.671 108.532 267.056 108.776C264.952 108.972 263.921 108.008 262.432 106.816C258.636 110.572 258.37 123.267 253.275 125.692C245.433 129.425 251.002 115.199 253.873 112.968C256.095 111.241 257.299 107.521 257.806 104.919C255.86 106.83 253.699 111.296 250.554 111.41C248.085 111.5 248.239 106.425 248.259 104.723C247.92 104.718 243.866 107.464 243.042 107.963C242.346 107.487 241.817 106.957 241.206 106.383C230.379 114.185 234.356 99.4984 237.03 98.2714C237.787 98.2965 237.518 98.2031 238.118 98.6844C238.475 99.5219 236.603 105.066 236.369 107.368C241.233 104.914 242.087 100.705 246.745 98.4276C247.9 97.8632 251.98 98.2864 252.179 99.3026C252.651 101.731 250.02 106.886 250.846 109.347C253.82 110.388 255.931 99.9021 258.698 98.8993C260.784 99.4133 260.368 105.176 260.263 106.959C262.862 104.618 262.894 102.668 264.635 99.7958C265.473 98.4119 268.239 96.3364 269.816 97.6512C273.48 100.704 265.305 104.622 265.522 106.835C267.374 108.152 271.337 104.473 272.613 103.067C273.003 99.6665 274.963 98.2185 277.881 96.7596ZM256.319 112.906C253.527 115.394 251.552 119.227 251.104 122.959C251.041 123.468 250.988 124.04 251.418 124.376C254.135 121.995 255.722 116.941 256.501 113.337C256.534 113.187 256.432 113.018 256.319 112.906ZM248.53 99.5165C247.128 100.32 243.702 103.293 243.637 104.839L243.903 104.889C246.518 103.275 247.291 102.641 248.805 99.8876L248.771 99.5829L248.53 99.5165ZM268.641 98.6766C267.724 99.6465 266.188 101.633 266.216 103.024L266.425 103.257C267.155 102.254 268.881 100.152 268.866 98.9784L268.641 98.6766Z" fill="black"/>
<path d="M78.2393 0.615234L82.509 0.676482C82.4031 20.0124 82.4218 39.3489 82.565 58.6845C92.7435 58.9387 103.263 58.6711 113.51 58.8049C113.521 60.0217 113.53 61.1517 113.473 62.3712C101.654 62.4481 89.8342 62.4631 78.0149 62.4162L78.2393 0.615234Z" fill="black"/>
<path d="M32.5249 0.674557C34.1264 0.625734 35.7292 0.636452 37.3299 0.706713C39.1388 3.63256 40.1141 6.75293 41.6148 9.76461C43.3807 13.3084 44.8718 16.8911 46.5391 20.4565L69.0015 68.6935C67.4239 68.7309 65.8464 68.7516 64.2684 68.756C61.0862 62.909 58.0814 55.7786 55.2359 49.625L41.7946 20.8651C38.7415 14.2274 35.7821 7.13943 32.5249 0.674557Z" fill="black"/>
<path d="M196.383 79.653C197.373 79.5593 199.219 79.7632 199.458 80.8708C200.365 85.0642 195.89 90.3487 193.896 93.8268C192.618 96.0559 190.498 97.8454 189.573 100.299C188.079 105.903 186.678 110.687 189.181 116.025C191.472 112.513 192.065 109.284 193.481 105.49C194.39 103.281 196.386 98.3124 198.852 97.57C204.081 95.9957 202.977 102.242 199.473 103.833C198.305 104.363 196.402 105.457 197.003 106.894C200.243 109.147 206.191 101.418 207.567 101.197L207.708 101.614C207.643 102.433 207.404 102.697 206.948 103.361C203.904 106.891 199.817 111.215 195.2 107.522C194.208 109.504 192.051 116.097 190.888 117.033C184.264 122.364 185.72 104.262 185.757 102.696C184.07 104.687 182.765 106.638 180.745 108.402C178.584 110.29 175.166 110.555 176.024 106.653C176.762 103.295 179.391 99.2502 182.745 98.0466C184.226 97.5154 185.143 97.7339 186.661 98.0524C188.463 93.0626 192.068 82.7811 196.383 79.653ZM185.067 98.8688C183.302 99.5869 177.874 105.601 178.447 107.199L178.576 107.308C180.801 106.029 184.709 101.62 185.337 99.3376C185.274 99.2202 185.138 98.9475 185.067 98.8688ZM200.597 99.3249C199.357 100.237 198.333 101.409 197.491 102.694L197.56 102.955C198.855 102.157 199.868 101.124 200.686 99.8444L200.712 99.4499L200.597 99.3249ZM196.849 82.235C194.666 85.7584 192.809 89.964 191.372 93.8405C191.423 94.0331 191.431 94.158 191.543 94.3112C192.948 92.7048 196.989 84.6992 197.039 82.4567L196.849 82.235Z" fill="black"/>
<path d="M84.9014 0.644531L88.969 0.645972L88.9747 52.0324C95.7462 52.3219 106.496 52.4489 113.358 52.1093C113.38 53.2809 113.491 54.6329 113.558 55.8174C112.367 56.0363 106.046 55.9667 104.417 55.9677L84.9251 55.9391L84.9014 0.644531Z" fill="black"/>
<path d="M108.082 13.7021C114.796 13.8428 121.574 13.6447 128.297 13.8477L128.29 68.7491C126.856 68.8268 125.113 68.7635 123.656 68.7478L123.694 18.0506C119.123 17.745 112.766 17.9478 108.075 17.9696C108.046 16.5735 108.076 15.1043 108.082 13.7021Z" fill="black"/>
<path d="M138.084 13.7061C143.703 13.9269 150.259 13.7812 155.984 13.8059L155.994 18.2593C151.756 18.0638 146.537 18.1267 142.27 18.2366C142.074 22.2744 142.201 27.3496 142.203 31.4347L142.22 54.9817C142.217 59.5734 142.259 64.165 142.349 68.7558C140.922 68.8062 139.457 68.7609 138.027 68.7361L138.084 13.7061Z" fill="black"/>
<path d="M130.822 13.7344C132.302 13.7995 133.921 13.7985 135.413 13.8271L135.456 68.7758C133.946 68.7851 132.314 68.7251 130.795 68.6944C130.724 50.5289 130.592 31.8765 130.822 13.7344Z" fill="black"/>
<path d="M328.228 0.572266C329.344 0.680205 331.819 0.612318 333.04 0.609923C333.783 2.76308 336.478 8.15492 337.592 10.6431C341.463 19.2945 345.787 27.9351 349.634 36.5948C351.178 40.0664 354.347 46.0196 355.331 49.4876C355.346 50.0607 354.94 50.4263 354.566 50.8687C353.992 51.2743 352.984 51.8329 352.349 52.2099C350.723 50.1874 349.137 46.1266 348.003 43.6383L342.116 30.7681L333.142 11.6867C331.557 8.28899 329.419 4.0982 328.228 0.572266Z" fill="black"/>
<path d="M83.156 84.6895C83.7862 84.7329 84.5858 84.8484 85.0886 85.2324C85.4055 85.7233 84.319 98.9488 84.3191 101.028C85.7961 101.044 89.2317 100.568 90.2302 101.661L89.9724 102.016C88.0831 102.95 86.2463 102.964 84.157 103.15C83.9504 108.906 84.2834 114.865 83.8533 120.604C83.8166 121.096 83.6733 121.26 83.3191 121.542C81.9623 120.991 81.6989 118.19 81.6736 116.924C81.5825 112.346 81.6599 107.761 81.7009 103.182C75.9865 104.19 76.2008 105.306 74.1697 110.405C73.4888 112.174 72.3707 116.177 70.3318 116.455C69.6261 116.108 69.6515 116.26 69.3552 115.682C69.4847 113.006 72.3525 107.348 73.7 104.967C70.2675 106.121 66.8999 107.39 63.4851 108.584C62.3828 108.969 61.3259 107.995 61.0837 106.986C61.7892 105.78 72.4982 103.509 74.8425 102.346C76.2026 99.987 77.7623 96.4399 78.8406 93.9404C80.1782 90.8392 81.139 87.4673 83.156 84.6895ZM81.6228 94.6318C80.6059 96.0667 78.4326 100.065 78.1482 101.758L78.2986 101.96L81.6599 101.505C81.6908 100.3 81.8853 95.7038 81.7546 94.7676L81.6228 94.6318Z" fill="black"/>
<path d="M250.901 43.322C251.254 43.3149 252.437 43.2556 252.672 43.498C260.567 51.6094 267.861 60.2599 275.434 68.6754L269.728 68.8461C268.425 67.7294 266.149 64.8562 264.96 63.4167C262.531 60.437 257.99 55.3762 255.304 52.7166C255.06 57.022 254.936 64.6494 255.162 68.7694C253.658 68.7643 252.12 68.7233 250.613 68.6996C250.815 60.2185 250.663 51.8418 250.901 43.322Z" fill="black"/>
<path d="M250.986 14.142C258.276 14.03 273.182 12.2526 273.09 23.141C273.009 32.6896 262.971 32.8689 255.872 32.8291C254.196 32.8074 252.522 32.7743 250.846 32.7302C250.874 31.2832 250.964 29.8832 251.053 28.4407C256.158 28.4508 262.746 29.0692 267.139 26.7541C272.226 16.046 257.087 18.6458 250.915 18.5836L250.986 14.142Z" fill="black"/>
<path d="M243.655 82.7422L244.037 82.8408L244.254 83.226C244.128 83.6866 244.106 83.8809 243.653 84.15C240.802 85.8488 237.55 86.5333 234.813 88.4802C234.253 94.883 230.677 112.082 226.234 116.5C225.38 117.348 224.331 118.001 223.085 117.975C221.945 117.951 221.001 117.381 220.246 116.563C215.973 111.943 216.221 97.8242 216.468 91.7494C216.49 91.184 216.503 90.3582 216.943 89.95C218.162 89.5647 219.276 89.4556 219.834 90.692C219.909 97.4907 218.95 110.668 222.912 116.112C223.257 115.9 223.582 115.659 223.886 115.392C227.845 111.892 231.978 93.9218 232.284 88.6517C230.726 89.2563 227.946 91.1067 226.508 89.9067L226.548 89.5486C229.525 86.8996 239.729 83.2083 243.655 82.7422Z" fill="black"/>
<path d="M24.3816 56.3994C31.7675 56.3838 39.7887 56.2159 47.1301 56.5669C48.6411 59.1742 50.9571 64.7485 51.8618 67.6873C50.2508 67.6625 48.3037 67.495 46.6705 67.3947C45.6165 65.4901 44.6908 62.9503 43.8753 60.8821C42.7346 60.6969 38.3679 60.7649 37.019 60.7678L23.4521 60.8181C22.7137 63.0605 22.0009 65.3184 20.9912 67.4506L16.3467 67.5383C17.2986 63.9611 18.8062 59.8406 20.501 56.5513C21.7219 56.464 23.1426 56.4463 24.3816 56.3994Z" fill="black"/>
<path d="M108.08 7.23186L155.931 7.22656L156.018 11.2472L108.061 11.3063C108.036 9.97047 108.069 8.57269 108.08 7.23186Z" fill="black"/>
<path d="M108.071 0.542969C113.646 0.759943 120.103 0.592076 125.778 0.585214L155.983 0.625816L155.892 4.41341C147.873 4.28275 139.667 4.36865 131.63 4.3681C123.784 4.32605 115.937 4.35155 108.09 4.44457C108.069 3.1561 108.077 1.83426 108.071 0.542969Z" fill="black"/>
<path d="M319.45 56.4008C324.715 56.389 336.108 56.0547 341.785 56.7865C342.713 56.9057 343.354 59.6964 343.634 60.7825L328.664 60.7782L318.841 60.7973C318.399 62.3166 317.35 65.6192 316.236 66.6841C314.826 68.0327 312.632 67.7036 310.814 67.6472C312.05 64.3971 314.032 59.7859 315.39 56.5122L319.45 56.4008Z" fill="black"/>
<path d="M259.106 43.2248C261.523 42.9098 261.851 43.1994 263.493 44.995C265.209 46.871 266.926 48.7688 268.641 50.646L284.802 68.6387L281.894 68.7402C281.172 68.7664 280.036 68.7041 279.281 68.6883C278.092 67.738 272.622 61.5787 271.305 60.0314C266.605 54.5118 261.186 49.0548 256.832 43.3558L259.106 43.2248Z" fill="black"/>
<path d="M326.081 35.4473C327.688 35.4712 329.404 35.5652 331.019 35.6241C333.314 39.8081 336.4 46.9767 338.415 51.4091L326.635 51.3854L318.847 51.4079C319.328 49.9448 320.032 48.3953 320.641 46.9686C324.125 46.7942 327.59 47.0443 331.137 46.7546C329.66 42.7403 327.958 39.2711 326.081 35.4473Z" fill="black"/>
<path d="M30.3663 35.418L34.9121 35.5578C36.494 37.6659 41.1293 48.6011 42.1818 51.365C38.5727 51.4765 34.5431 51.3912 30.9024 51.3912L24.3518 51.3987C24.8187 49.6604 25.3235 48.4919 26.212 46.9411L35.419 46.7911C33.5764 42.9804 32.0295 39.3102 30.3663 35.418Z" fill="black"/>
<path d="M358.487 56.0361C359.621 56.4909 364.695 67.3067 364.393 68.5905C363.689 68.8859 362.823 68.7574 362.041 68.7138L361.293 68.5978C359.367 67.2549 357.194 61.303 356.084 58.8888C356.979 57.619 357.429 57.1271 358.487 56.0361Z" fill="black"/>
<path d="M353.511 60.7246C354.8 61.6956 356.407 66.896 356.758 68.6336C355.652 68.7264 354.307 68.7109 353.181 68.727C352.036 67.9149 350.711 65.3047 349.993 64.0247C351.168 62.8412 352.269 61.8375 353.511 60.7246Z" fill="black"/>
<path d="M351.419 56.2149C351.622 56.1558 351.864 56.2888 352.075 56.3724C352.738 57.0381 353.122 58.131 353.501 59.0172C352.941 59.6948 349.914 62.5927 349.175 62.6926C348.004 60.9624 347.152 58.5247 346.406 56.5583L351.419 56.2149Z" fill="black"/>
<path d="M335.761 69.4928L335.832 69.4859C336.786 69.3989 337.65 69.5203 338.409 70.154C339.454 72.4107 335.895 74.4026 334.296 75.2782C333.515 75.4503 332.294 75.3581 331.778 74.6716C331.003 72.5361 334.146 70.2923 335.761 69.4928Z" fill="black"/>
<path d="M357.632 50.4357C358.525 50.3484 359.86 50.3792 360.66 50.8175L360.737 51.2002C360.004 52.8099 357.383 55.4849 356.033 56.5618L355.591 56.8712C354.501 56.5905 353.763 55.1532 353.132 54.1787C354.461 52.3194 355.591 51.3888 357.632 50.4357Z" fill="black"/>
<path d="M328.177 75.1523L328.806 75.2423C329.457 75.7195 330.078 77.2516 330.455 78.0312L324.837 81.6549L324.636 81.6835C324.155 81.4188 323.049 79.7099 322.658 79.1548C324.232 77.3854 326.028 76.1207 328.177 75.1523Z" fill="black"/>
<path d="M310.333 86.334C311.589 86.444 312.078 87.5232 312.764 88.4932C311.027 89.9169 308.87 91.3757 306.774 92.1619C305.634 92.2129 304.968 90.3818 304.559 89.537C306.468 88.0658 308.038 87.1064 310.333 86.334Z" fill="black"/>
<path d="M344.584 62.3281C345.188 62.6276 346.438 64.7198 346.864 65.3844C345.34 66.867 343.9 68.2807 341.932 69.136C337.084 67.4573 342.705 63.9613 344.584 62.3281Z" fill="black"/>
<path d="M318.993 81.2517C319.868 81.1201 320.6 81.5119 320.998 82.2686C321.181 84.5958 317.845 86.4728 315.994 87.1231C315.126 87.0015 314.7 86.7916 314.12 86.1496C313.476 83.8997 317.342 81.9768 318.993 81.2517Z" fill="black"/>
<path d="M300.728 91.2014C302.775 91.1845 302.67 92.3197 303.106 94.0593C301.752 94.9334 299.545 95.9814 298.082 96.6432C297.883 96.6738 297.39 96.7351 297.24 96.6389C293.425 94.1884 299.518 91.7813 300.728 91.2014Z" fill="black"/>
<path d="M365.267 40.9911C366.215 40.9042 367.144 41.5711 367.915 42.0545C367.055 44.349 365.848 45.8263 364.068 47.4601L363.51 47.7115C362.329 47.3191 361.857 46.3876 362.033 45.1418C362.309 43.1712 363.75 42.1007 365.267 40.9911Z" fill="black"/>
<path d="M291.774 95.498L292.344 95.6247C293.093 96.195 293.494 97.0484 293.971 97.8718C292.1 99.1029 290.475 99.6191 288.32 100.041C288.123 100.019 287.931 99.9742 287.744 99.9076C286.855 99.5864 286.494 98.48 286.111 97.6323C287.941 96.518 289.718 95.968 291.774 95.498Z" fill="black"/>
<path d="M259.015 91.6113C260.228 91.6864 261.598 94.2029 259.017 95.1018C257.954 94.9398 257.806 94.977 257.189 94.2512C256.879 92.7236 257.82 92.2206 259.015 91.6113Z" fill="black"/>
<path d="M238.986 91.1406L239.642 91.2137C241.378 92.2279 240.386 94.1577 238.812 94.9511C238.126 94.6222 237.96 94.5518 237.418 94.0302C236.929 92.5954 237.943 91.9965 238.986 91.1406Z" fill="black"/>
<path d="M148.16 91.165C150.497 91.3721 150.309 93.9901 148.555 94.9739C148.349 94.9111 148.144 94.8429 147.941 94.7692C147.178 94.4844 147.116 94.2739 146.836 93.6598C146.817 92.608 147.481 91.905 148.16 91.165Z" fill="black"/>
</svg>
