<svg width="686" height="575" viewBox="0 0 686 575" fill="none" xmlns="http://www.w3.org/2000/svg">
<path fill-rule="evenodd" clip-rule="evenodd" d="M274.866 2.40356C277.385 4.64385 429.959 284.497 436.638 299.756C430.768 303.016 418.432 307.249 411.842 309.708C398.823 314.552 385.831 319.467 372.867 324.454C323.892 343.421 275.075 362.802 226.421 382.579C205.375 391.099 175.281 401.307 156.185 411.852C177.9 406.414 202.658 400.413 223.588 393.056C251 383.426 278.354 373.016 305.693 363.086L442.521 313.849L500.262 293.37C510.971 289.625 525.122 284.395 535.962 281.61C508.414 296.286 480.967 311.149 453.621 326.194C461.784 344.097 480.254 375.417 490.257 393.634L559.023 519.064C560.44 521.614 563.254 526.159 563.074 528.836C560.051 530.006 450.447 500.366 437.535 497.014C429.421 482.224 421.281 464.884 413.73 449.666L374.539 370.496C363.525 375.401 346.375 385.361 335.415 391.354L264.011 430.624L116.339 510.514C79.9349 530.284 39.9455 553.084 2.96304 571.264C6.89625 562.031 12.6953 550.826 17.1056 541.564L133.097 298.197L213.043 132.043C232.591 90.6936 253.96 42.7985 274.866 2.40356ZM276.812 171.826C275.784 180.241 274.695 209.13 272.278 214.564C253.606 256.53 228.192 301.285 209.914 343.301C220.806 337.076 231.134 330.641 241.886 324.329L294.513 292.827C305.251 286.353 316.866 278.929 327.821 273.042C322.359 261.396 281.008 175.468 276.812 171.826ZM668.917 206.917C673.523 206.475 681.483 206.188 684.236 210.238C684.889 224.047 646.577 243.962 635.204 249.748C629.188 263.464 624.139 277.534 617.98 291.322C613.359 294.451 610.568 296.322 605.489 298.854C604.672 289.822 605.377 273.094 605.497 263.186C594.297 267.266 580.479 271.792 569.586 276.924C565.243 278.971 561.881 286.739 555.077 285.957C553.855 284.909 551.972 277.096 551.192 274.679L532.152 261.848C534.312 260.625 536.488 259.671 538.738 258.632C546.99 259.854 556.255 261.775 564.529 263.294C572.714 258.528 581.303 252.909 589.375 247.847C578.715 241.53 563.734 236.122 552.024 230.197C564.994 223.981 568.775 225.033 583.126 226.975C593.666 228.401 605.265 230.574 615.782 230.94C634.214 219.625 646.944 209.854 668.917 206.917Z" fill="#00B4C5"/>
</svg>
